<svg xmlns="http://www.w3.org/2000/svg" viewBox="0 0 128 128" width="100%" height="100%">
  <path fill="url(#swiftGrad)" d="M117.5 73.1c-1.8 4.6-5.8 9.3-10.7 13.9-8.4 7.9-19 12.3-25.9 14-3.1.8-1.5.3 1.9-.9 17.5-6.5 30.7-20.7 32-37.4.3-3.6-.8-5.3-2.6-3.8-3 2.5-9.1 7.2-14.7 10.3-11.7 6.4-23.7 9.8-35.8 8.1-1.3-.2-3.1-.7-4.1-1.2 16.5-4.4 29.8-13.6 37-26.6 2.3-4.1.3-4.2-2.1-2.6-11.7 7.7-26 13.6-40.4 15.6-7.8 1.1-15 .2-21.7-2.6-1.5-.6-3.2-1.6-3.7-2.3 8-1.2 17.5-3.8 25.1-7.9 10.3-5.5 18-13 22-22.3 1.3-3-.7-2.6-2.5-1.7-10.3 5.4-21.5 8.9-33.1 10.2-9 .9-17.7.1-25.9-2.5-3.3-1-3.6-.8-.8.6 15.3 7.8 25.8 21.6 29 38.6.9 4.6.6 9.6-.8 14.3-3.9 13.7-14.6 24.5-28.7 30.1-5.1 2-5.4 1.7-.8-.7 13.7-7.2 22.8-18.7 26.6-32.3.9-3.3 1.2-6.9 1.1-10.4-.1-1.3-.8-1.5-.7.5.3 11 4.5 21.2 12.4 29.7 11.2 12 27.6 18.6 44.5 18 17.5-.6 32.7-8.3 43-21.3 2.8-3.6 5-7.7 6.6-12.1 1-2.9-.6-2.4-1.7-.3z"/>
  <defs>
    <linearGradient id="swiftGrad" x1="0%" y1="0%" x2="100%" y2="100%">
      <stop offset="0%" stop-color="#FF5E3A" />
      <stop offset="100%" stop-color="#FF2A68" />
    </linearGradient>
  </defs>
</svg>
